<?xml version="1.0" encoding="UTF-8" standalone="no"?>
<!DOCTYPE svg PUBLIC "-//W3C//DTD SVG 1.1//EN" "http://www.w3.org/Graphics/SVG/1.1/DTD/svg11.dtd">
<svg width="100%" height="100%" viewBox="0 0 2075 863" version="1.1" xmlns="http://www.w3.org/2000/svg" xmlns:xlink="http://www.w3.org/1999/xlink" xml:space="preserve" xmlns:serif="http://www.serif.com/" style="fill-rule:evenodd;clip-rule:evenodd;stroke-linejoin:round;stroke-miterlimit:2;">
    <g transform="matrix(4.16667,0,0,4.16667,0,0)">
        <path d="M53.272,0.942L2.024,83.678L53.272,78.096L53.272,0.942ZM55.145,81.539L0,87.444L8.815,104.001L97.398,104.001L108.812,87.444L55.145,81.539ZM57.213,12.99L57.213,78.096L108.461,83.678L57.213,12.99Z" style="fill:rgb(224,31,38);fill-rule:nonzero;"/>
        <path d="M57.213,12.99L57.213,78.096L78.353,66.581L57.213,12.99ZM53.272,0.942L2.024,83.678L35.6,63.59L53.272,0.942ZM8.754,104.001L22.114,104.001L0,87.444L8.754,104.001ZM83.535,104.001L97.398,104.001L108.812,87.444L83.535,104.001ZM52.824,103.995L33.801,84.117L22.134,104.001L83.514,104.001L71.806,83.393L52.824,103.995Z" style="fill:rgb(169,30,34);fill-rule:nonzero;"/>
        <path d="M53.272,129.847L2.024,124.265L53.272,207L53.272,129.847ZM108.812,120.498L97.398,103.942L8.815,103.942L0,120.498L55.145,126.403L108.812,120.498ZM108.461,124.265L57.213,129.847L57.213,194.952L108.461,124.265Z" style="fill:url(#_Linear1);"/>
        <path d="M78.353,141.361L57.213,129.847L57.213,194.952L78.353,141.361ZM35.6,144.353L2.024,124.265L53.272,207L35.6,144.353ZM0,120.498L22.114,103.942L8.754,103.942L0,120.498ZM108.812,120.498L97.398,103.942L83.535,103.942L108.812,120.498ZM71.806,124.549L83.514,103.942L22.134,103.942L33.801,123.825L52.824,103.947L71.806,124.549Z" style="fill:url(#_Linear2);"/>
        <path d="M159.876,95.565C146.802,95.565 135.403,90.089 129.479,81.374L140.768,71.315C146.243,77.685 153.284,80.255 160.771,80.255C170.046,80.255 174.404,77.685 174.404,71.762C174.404,66.733 171.721,64.499 156.971,61.147C142.555,57.794 132.498,53.211 132.498,37.79C132.498,23.599 145.014,14.882 160.436,14.882C172.617,14.882 181.555,19.464 188.931,27.175L177.645,38.126C172.617,32.985 167.029,30.079 159.876,30.079C151.495,30.079 148.702,33.655 148.702,37.12C148.702,42.037 152.054,43.603 164.458,46.507C176.862,49.413 190.607,53.659 190.607,70.645C190.607,85.509 181.22,95.565 159.876,95.565Z" style="fill:rgb(80,48,26);fill-rule:nonzero;"/>
        <path d="M213.419,31.31L205.15,31.31L205.15,79.139L212.861,79.139C229.288,79.139 236.775,69.527 236.775,55.224C236.775,39.243 229.959,31.31 213.419,31.31ZM212.861,94.336L189.506,94.336L189.506,16.111L213.979,16.111C236.329,16.111 252.867,26.615 252.867,55.224C252.867,82.714 232.976,94.336 212.861,94.336Z" style="fill:rgb(80,48,26);fill-rule:nonzero;"/>
        <path d="M315.58,31.31L295.129,31.31L295.129,51.423L315.58,51.423C322.844,51.423 326.754,48.071 326.754,41.255C326.754,34.214 322.508,31.31 315.58,31.31ZM324.855,94.336L310.887,66.175L295.129,66.175L295.129,94.336L279.485,94.336L279.485,16.111L315.915,16.111C330.666,16.111 342.847,24.269 342.847,40.919C342.847,52.653 337.817,60.029 327.871,63.94L342.847,94.336L324.855,94.336Z" style="fill:rgb(224,31,38);fill-rule:nonzero;"/>
        <path d="M376.284,94.336L376.284,90.425C373.602,93.219 368.686,95.565 362.539,95.565C347.564,95.565 340.86,85.284 340.86,68.745L340.86,35.667L356.281,35.667L356.281,67.403C356.281,77.907 359.857,81.038 366.227,81.038C372.597,81.038 376.284,77.907 376.284,67.739L376.284,35.667L391.706,35.667L391.706,94.336L376.284,94.336Z" style="fill:rgb(224,31,38);fill-rule:nonzero;"/>
        <path d="M420.375,48.966C415.569,48.966 413.11,50.977 410.875,53.882L410.875,76.009C413.222,79.249 416.798,81.038 421.268,81.038C427.191,81.038 430.432,75.898 430.432,66.064C430.432,53.995 426.408,48.966 420.375,48.966ZM423.279,95.565C418.139,95.565 413.67,93.554 410.875,90.982L410.875,94.336L395.455,94.336L395.455,20.582L410.875,12.87L410.875,39.355C413.781,36.786 417.692,34.439 423.279,34.439C435.796,34.439 446.076,43.825 446.076,65.728C446.076,83.273 437.808,95.565 423.279,95.565Z" style="fill:rgb(224,31,38);fill-rule:nonzero;"/>
        <path d="M466.957,115.008L451.758,115.008L459.582,94.336L436.784,35.667L453.77,35.667L463.38,63.94C464.945,68.409 466.51,73.997 467.18,76.792C467.851,73.885 469.416,68.521 470.979,63.94L480.591,35.667L497.129,35.667L466.957,115.008Z" style="fill:rgb(224,31,38);fill-rule:nonzero;"/>
        <path d="M143.856,137.313L141.087,137.313L139.348,130.033C139.146,129.185 138.944,128.133 138.863,127.608C138.802,128.133 138.6,129.205 138.398,130.033L136.619,137.313L133.97,137.313L131.018,123.16L133.97,123.16L135.203,130.054C135.325,130.741 135.486,131.793 135.547,132.379C135.648,131.793 135.871,130.741 136.032,130.054L137.69,123.16L140.157,123.16L141.835,130.054C141.997,130.741 142.219,131.793 142.32,132.379C142.381,131.793 142.542,130.722 142.664,130.054L143.897,123.16L146.809,123.16L143.856,137.313Z" style="fill:rgb(80,48,26);fill-rule:nonzero;"/>
        <path d="M151.811,128.901C150.8,128.901 150.173,129.731 150.072,130.802L153.711,130.802C153.63,129.852 153.064,128.901 151.811,128.901ZM156.38,132.904L150.032,132.904C150.133,134.36 151.204,134.906 152.215,134.906C152.983,134.906 153.63,134.623 154.035,134.158L156.016,135.817C155.167,136.908 153.63,137.534 152.215,137.534C149.162,137.534 147.221,135.371 147.221,132.016C147.221,128.76 149.263,126.475 151.952,126.475C154.783,126.475 156.42,128.983 156.42,132.016C156.42,132.42 156.4,132.702 156.38,132.904Z" style="fill:rgb(80,48,26);fill-rule:nonzero;"/>
        <path d="M170.356,132.864C169.871,132.561 169.406,132.42 168.416,132.42C167.364,132.42 166.798,132.904 166.798,133.754C166.798,134.502 167.223,135.169 168.416,135.169C169.325,135.169 170.053,134.704 170.356,134.198L170.356,132.864ZM170.356,137.313L170.356,136.605C169.851,137.13 168.961,137.534 167.971,137.534C165.989,137.534 164.008,136.321 164.008,133.754C164.008,131.408 165.908,130.237 168.314,130.237C169.285,130.237 169.912,130.438 170.356,130.66L170.356,130.135C170.356,129.388 169.851,128.78 168.84,128.78C167.566,128.78 166.899,128.963 165.929,129.489L164.857,127.547C166.09,126.84 167.122,126.475 168.84,126.475C171.408,126.475 173.146,127.81 173.146,130.196L173.146,137.313L170.356,137.313Z" style="fill:rgb(80,48,26);fill-rule:nonzero;"/>
        <path d="M181.965,129.953C181.521,129.549 180.975,129.267 180.348,129.267C179.256,129.267 178.548,129.731 178.548,131.571L178.548,137.313L175.758,137.313L175.758,126.697L178.548,126.697L178.548,127.405C179.034,126.9 179.741,126.475 180.732,126.475C181.642,126.475 182.329,126.84 182.693,127.223L181.965,129.953Z" style="fill:rgb(80,48,26);fill-rule:nonzero;"/>
        <path d="M188.156,128.901C187.146,128.901 186.519,129.731 186.418,130.802L190.057,130.802C189.976,129.852 189.41,128.901 188.156,128.901ZM192.726,132.904L186.377,132.904C186.479,134.36 187.55,134.906 188.561,134.906C189.329,134.906 189.976,134.623 190.38,134.158L192.362,135.817C191.513,136.908 189.976,137.534 188.561,137.534C185.508,137.534 183.567,135.371 183.567,132.016C183.567,128.76 185.609,126.475 188.298,126.475C191.128,126.475 192.766,128.983 192.766,132.016C192.766,132.42 192.746,132.702 192.726,132.904Z" style="fill:rgb(80,48,26);fill-rule:nonzero;"/>
        <path d="M206.327,137.534C203.961,137.534 201.899,136.544 200.828,134.967L202.87,133.147C203.86,134.299 205.134,134.765 206.489,134.765C208.167,134.765 208.955,134.299 208.955,133.229C208.955,132.318 208.47,131.914 205.801,131.308C203.193,130.701 201.374,129.872 201.374,127.082C201.374,124.514 203.638,122.938 206.428,122.938C208.632,122.938 210.249,123.766 211.583,125.161L209.542,127.143C208.632,126.213 207.621,125.687 206.327,125.687C204.811,125.687 204.305,126.334 204.305,126.961C204.305,127.85 204.912,128.133 207.156,128.658C209.4,129.185 211.887,129.953 211.887,133.025C211.887,135.715 210.188,137.534 206.327,137.534Z" style="fill:rgb(80,48,26);fill-rule:nonzero;"/>
        <path d="M219.868,132.864C219.383,132.561 218.918,132.42 217.927,132.42C216.876,132.42 216.31,132.904 216.31,133.754C216.31,134.502 216.734,135.169 217.927,135.169C218.837,135.169 219.565,134.704 219.868,134.198L219.868,132.864ZM219.868,137.313L219.868,136.605C219.362,137.13 218.473,137.534 217.482,137.534C215.501,137.534 213.52,136.321 213.52,133.754C213.52,131.408 215.42,130.237 217.826,130.237C218.796,130.237 219.423,130.438 219.868,130.66L219.868,130.135C219.868,129.388 219.362,128.78 218.352,128.78C217.078,128.78 216.411,128.963 215.44,129.489L214.369,127.547C215.602,126.84 216.633,126.475 218.352,126.475C220.919,126.475 222.658,127.81 222.658,130.196L222.658,137.313L219.868,137.313Z" style="fill:rgb(80,48,26);fill-rule:nonzero;"/>
        <path d="M231.679,137.313L231.679,131.571C231.679,129.67 231.032,129.104 229.879,129.104C228.727,129.104 228.06,129.67 228.06,131.51L228.06,137.313L225.27,137.313L225.27,126.697L228.06,126.697L228.06,127.405C228.545,126.9 229.435,126.475 230.546,126.475C233.256,126.475 234.469,128.336 234.469,131.328L234.469,137.313L231.679,137.313Z" style="fill:rgb(80,48,26);fill-rule:nonzero;"/>
        <path d="M247.881,125.909L246.385,125.909L246.385,134.563L247.78,134.563C250.752,134.563 252.106,132.824 252.106,130.237C252.106,127.345 250.874,125.909 247.881,125.909ZM247.78,137.313L243.555,137.313L243.555,123.16L247.982,123.16C252.026,123.16 255.019,125.061 255.019,130.237C255.019,135.209 251.419,137.313 247.78,137.313Z" style="fill:rgb(80,48,26);fill-rule:nonzero;"/>
        <path d="M257.346,137.313L257.346,126.697L260.135,126.697L260.135,137.313L257.346,137.313ZM258.739,125.828C257.871,125.828 257.144,125.101 257.144,124.231C257.144,123.361 257.871,122.634 258.739,122.634C259.609,122.634 260.338,123.361 260.338,124.231C260.338,125.101 259.609,125.828 258.739,125.828Z" style="fill:rgb(80,48,26);fill-rule:nonzero;"/>
        <path d="M266.991,128.901C265.98,128.901 265.354,129.731 265.253,130.802L268.893,130.802C268.811,129.852 268.245,128.901 266.991,128.901ZM271.561,132.904L265.213,132.904C265.313,134.36 266.385,134.906 267.396,134.906C268.164,134.906 268.811,134.623 269.215,134.158L271.197,135.817C270.348,136.908 268.811,137.534 267.396,137.534C264.343,137.534 262.402,135.371 262.402,132.016C262.402,128.76 264.443,126.475 267.133,126.475C269.963,126.475 271.602,128.983 271.602,132.016C271.602,132.42 271.581,132.702 271.561,132.904Z" style="fill:rgb(80,48,26);fill-rule:nonzero;"/>
        <path d="M279.651,130.015C279.227,129.428 278.58,129.104 277.771,129.104C276.699,129.104 276.113,130.033 276.113,131.813C276.113,133.996 276.842,134.906 277.934,134.906C278.803,134.906 279.247,134.542 279.651,134.017L279.651,130.015ZM277.872,141.214L276.882,139.111C279.064,138.809 279.651,138.282 279.651,136.645C279.126,137.109 278.418,137.534 277.407,137.534C275.143,137.534 273.283,135.836 273.283,131.873C273.283,128.699 274.779,126.475 277.407,126.475C278.338,126.475 279.146,126.84 279.651,127.305L279.651,126.697L282.441,126.697L282.441,135.513C282.441,139.01 281.592,140.81 277.872,141.214Z" style="fill:rgb(80,48,26);fill-rule:nonzero;"/>
        <path d="M289.441,129.164C288.106,129.164 287.479,130.377 287.479,132.016C287.479,133.652 288.106,134.846 289.441,134.846C290.775,134.846 291.422,133.49 291.422,132.016C291.422,130.398 290.775,129.164 289.441,129.164ZM289.441,137.534C286.671,137.534 284.648,135.27 284.648,132.016C284.648,128.76 286.671,126.475 289.441,126.475C292.211,126.475 294.252,128.76 294.252,132.016C294.252,135.27 292.211,137.534 289.441,137.534Z" style="fill:rgb(80,48,26);fill-rule:nonzero;"/>
        <path d="M297.592,128.841L295.672,128.841L295.954,123.16L299.25,123.16L297.592,128.841Z" style="fill:rgb(80,48,26);fill-rule:nonzero;"/>
        <path d="M304.488,137.534C302.81,137.534 301.172,137.049 300.04,136.301L300.97,134.178C302.102,134.805 303.295,135.149 304.649,135.149C305.741,135.149 306.064,134.886 306.064,134.34C306.064,133.856 305.681,133.612 304.508,133.269C301.961,132.5 300.322,131.873 300.322,129.629C300.322,127.426 302.082,126.475 304.568,126.475C305.902,126.475 307.359,126.879 308.49,127.506L307.602,129.711C306.55,129.145 305.397,128.861 304.508,128.861C303.376,128.861 303.072,129.084 303.072,129.549C303.072,129.993 303.396,130.176 305.276,130.782C307.177,131.408 308.814,132.096 308.814,134.219C308.814,136.665 306.873,137.534 304.488,137.534Z" style="fill:rgb(80,48,26);fill-rule:nonzero;"/>
        <path d="M324.431,125.909L320.73,125.909L320.73,129.549L324.431,129.549C325.745,129.549 326.452,128.942 326.452,127.709C326.452,126.435 325.685,125.909 324.431,125.909ZM326.108,137.313L323.581,132.217L320.73,132.217L320.73,137.313L317.9,137.313L317.9,123.16L324.491,123.16C327.16,123.16 329.364,124.635 329.364,127.649C329.364,129.771 328.454,131.106 326.654,131.813L329.364,137.313L326.108,137.313Z" style="fill:rgb(80,48,26);fill-rule:nonzero;"/>
        <path d="M337.734,137.313L337.734,136.605C337.249,137.109 336.359,137.534 335.248,137.534C332.539,137.534 331.325,135.674 331.325,132.682L331.325,126.697L334.115,126.697L334.115,132.44C334.115,134.34 334.762,134.906 335.914,134.906C337.067,134.906 337.734,134.34 337.734,132.5L337.734,126.697L340.524,126.697L340.524,137.313L337.734,137.313Z" style="fill:rgb(80,48,26);fill-rule:nonzero;"/>
        <path d="M347.746,129.104C346.877,129.104 346.432,129.467 346.027,129.993L346.027,133.996C346.453,134.582 347.1,134.906 347.908,134.906C348.98,134.906 349.566,133.977 349.566,132.197C349.566,130.015 348.838,129.104 347.746,129.104ZM348.271,137.534C347.342,137.534 346.533,137.17 346.027,136.705L346.027,137.313L343.238,137.313L343.238,123.969L346.027,122.573L346.027,127.365C346.554,126.9 347.262,126.475 348.271,126.475C350.537,126.475 352.396,128.174 352.396,132.137C352.396,135.311 350.9,137.534 348.271,137.534Z" style="fill:rgb(80,48,26);fill-rule:nonzero;"/>
        <path d="M358.789,141.053L356.039,141.053L357.455,137.313L353.33,126.697L356.403,126.697L358.143,131.813C358.426,132.621 358.708,133.633 358.83,134.138C358.951,133.612 359.234,132.642 359.517,131.813L361.256,126.697L364.248,126.697L358.789,141.053Z" style="fill:rgb(80,48,26);fill-rule:nonzero;"/>
        <path d="M376.404,137.534C373.635,137.534 371.431,135.27 371.431,132.016C371.431,128.76 373.574,126.475 376.525,126.475C378.547,126.475 379.842,127.466 380.73,128.82L378.891,130.681C378.265,129.791 377.598,129.164 376.465,129.164C375.131,129.164 374.262,130.276 374.262,132.016C374.262,133.713 375.131,134.846 376.465,134.846C377.557,134.846 378.244,134.36 378.973,133.49L380.752,135.169C379.721,136.544 378.507,137.534 376.404,137.534Z" style="fill:rgb(80,48,26);fill-rule:nonzero;"/>
        <path d="M386.842,129.164C385.507,129.164 384.88,130.377 384.88,132.016C384.88,133.652 385.507,134.846 386.842,134.846C388.176,134.846 388.822,133.49 388.822,132.016C388.822,130.398 388.176,129.164 386.842,129.164ZM386.842,137.534C384.071,137.534 382.049,135.27 382.049,132.016C382.049,128.76 384.071,126.475 386.842,126.475C389.611,126.475 391.652,128.76 391.652,132.016C391.652,135.27 389.611,137.534 386.842,137.534Z" style="fill:rgb(80,48,26);fill-rule:nonzero;"/>
        <path d="M406.234,137.313L406.234,131.571C406.234,129.67 405.688,129.104 404.535,129.104C403.383,129.104 402.816,129.67 402.816,131.51L402.816,137.313L400.027,137.313L400.027,131.571C400.027,129.67 399.48,129.104 398.328,129.104C397.176,129.104 396.609,129.67 396.609,131.51L396.609,137.313L393.82,137.313L393.82,126.697L396.609,126.697L396.609,127.405C397.096,126.9 397.823,126.475 398.936,126.475C400.289,126.475 401.078,126.859 401.867,127.83C402.595,127.082 403.484,126.475 405.243,126.475C407.952,126.475 409.023,128.336 409.023,131.328L409.023,137.313L406.234,137.313Z" style="fill:rgb(80,48,26);fill-rule:nonzero;"/>
        <path d="M424.052,137.313L424.052,131.571C424.052,129.67 423.506,129.104 422.354,129.104C421.201,129.104 420.635,129.67 420.635,131.51L420.635,137.313L417.845,137.313L417.845,131.571C417.845,129.67 417.299,129.104 416.146,129.104C414.994,129.104 414.428,129.67 414.428,131.51L414.428,137.313L411.638,137.313L411.638,126.697L414.428,126.697L414.428,127.405C414.913,126.9 415.641,126.475 416.753,126.475C418.107,126.475 418.896,126.859 419.685,127.83C420.412,127.082 421.302,126.475 423.061,126.475C425.77,126.475 426.842,128.336 426.842,131.328L426.842,137.313L424.052,137.313Z" style="fill:rgb(80,48,26);fill-rule:nonzero;"/>
        <path d="M435.764,137.313L435.764,136.605C435.278,137.109 434.389,137.534 433.277,137.534C430.568,137.534 429.354,135.674 429.354,132.682L429.354,126.697L432.145,126.697L432.145,132.44C432.145,134.34 432.791,134.906 433.943,134.906C435.097,134.906 435.764,134.34 435.764,132.5L435.764,126.697L438.554,126.697L438.554,137.313L435.764,137.313Z" style="fill:rgb(80,48,26);fill-rule:nonzero;"/>
        <path d="M447.676,137.313L447.676,131.571C447.676,129.67 447.029,129.104 445.877,129.104C444.725,129.104 444.057,129.67 444.057,131.51L444.057,137.313L441.268,137.313L441.268,126.697L444.057,126.697L444.057,127.405C444.543,126.9 445.432,126.475 446.544,126.475C449.254,126.475 450.467,128.336 450.467,131.328L450.467,137.313L447.676,137.313Z" style="fill:rgb(80,48,26);fill-rule:nonzero;"/>
        <path d="M453.18,137.313L453.18,126.697L455.97,126.697L455.97,137.313L453.18,137.313ZM454.574,125.828C453.705,125.828 452.978,125.101 452.978,124.231C452.978,123.361 453.705,122.634 454.574,122.634C455.443,122.634 456.172,123.361 456.172,124.231C456.172,125.101 455.443,125.828 454.574,125.828Z" style="fill:rgb(80,48,26);fill-rule:nonzero;"/>
        <path d="M464.705,136.887C464.24,137.252 463.411,137.534 462.542,137.534C460.823,137.534 459.711,136.2 459.711,134.34L459.711,129.326L457.933,129.326L457.933,126.697L459.711,126.697L459.711,123.969L462.501,122.573L462.501,126.697L465.049,126.697L465.049,129.326L462.501,129.326L462.501,133.592C462.501,134.604 462.865,134.865 463.532,134.865C464.038,134.865 464.422,134.643 465.109,134.057L464.705,136.887Z" style="fill:rgb(80,48,26);fill-rule:nonzero;"/>
        <path d="M471.905,141.053L469.156,141.053L470.571,137.313L466.447,126.697L469.52,126.697L471.259,131.813C471.542,132.621 471.825,133.633 471.946,134.138C472.067,133.612 472.351,132.642 472.634,131.813L474.372,126.697L477.364,126.697L471.905,141.053Z" style="fill:rgb(80,48,26);fill-rule:nonzero;"/>
        <path d="M478.802,137.534C477.771,137.534 476.901,136.665 476.901,135.634C476.901,134.604 477.771,133.734 478.802,133.734C479.832,133.734 480.702,134.604 480.702,135.634C480.702,136.665 479.832,137.534 478.802,137.534Z" style="fill:rgb(80,48,26);fill-rule:nonzero;"/>
    </g>
    <defs>
        <linearGradient id="_Linear1" x1="0" y1="0" x2="1" y2="0" gradientUnits="userSpaceOnUse" gradientTransform="matrix(-4.50482e-06,-103.058,103.058,-4.50482e-06,54.4058,207)"><stop offset="0" style="stop-color:white;stop-opacity:1"/><stop offset="1" style="stop-color:rgb(254,230,220);stop-opacity:1"/></linearGradient>
        <linearGradient id="_Linear2" x1="0" y1="0" x2="1" y2="0" gradientUnits="userSpaceOnUse" gradientTransform="matrix(-4.50482e-06,-103.058,103.058,-4.50482e-06,54.4058,207)"><stop offset="0" style="stop-color:white;stop-opacity:1"/><stop offset="0.7" style="stop-color:rgb(252,242,238);stop-opacity:1"/><stop offset="1" style="stop-color:rgb(240,209,197);stop-opacity:1"/></linearGradient>
    </defs>
</svg>
