<?xml version="1.0" standalone="no"?>
<!DOCTYPE svg PUBLIC "-//W3C//DTD SVG 20010904//EN"
 "http://www.w3.org/TR/2001/REC-SVG-20010904/DTD/svg10.dtd">
<svg version="1.0" xmlns="http://www.w3.org/2000/svg"
 width="512.000000pt" height="512.000000pt" viewBox="0 0 512.000000 512.000000"
 preserveAspectRatio="xMidYMid meet">
<metadata>
Created by potrace 1.11, written by Peter Selinger 2001-2013
</metadata>
<g transform="translate(0.000000,512.000000) scale(0.100000,-0.100000)"
fill="#000000" stroke="none">
<path d="M2125 4293 c-204 -328 -454 -732 -556 -898 -102 -165 -432 -698 -734
-1185 -470 -758 -626 -1010 -652 -1054 -3 -4 12 -6 33 -2 22 3 71 8 109 11 39
4 77 8 85 10 8 2 49 7 90 10 41 4 83 9 92 10 9 2 52 6 95 10 43 3 85 8 93 10
8 2 44 7 80 10 36 3 81 8 100 10 19 2 58 7 85 10 28 3 109 11 180 19 72 8 159
17 195 21 36 3 76 8 90 10 14 3 54 7 90 10 36 3 81 8 101 11 36 4 52 6 177 19
35 4 71 8 80 10 9 1 52 6 95 10 43 3 87 8 98 10 11 2 52 7 92 10 39 3 83 7 97
10 14 2 54 7 90 11 36 3 67 8 70 10 6 6 6 3484 0 3484 -3 0 -172 -269 -375
-597z"/>
<path d="M2680 2877 l0 -1477 28 -1 c15 0 41 -2 57 -4 40 -5 155 -18 180 -20
58 -6 153 -16 179 -20 17 -2 56 -6 86 -9 100 -10 303 -33 370 -41 19 -3 62 -7
95 -10 33 -3 76 -8 95 -10 19 -3 62 -7 95 -10 57 -5 73 -7 170 -19 22 -3 69
-8 105 -11 36 -3 76 -8 90 -10 14 -2 54 -7 90 -10 75 -7 130 -13 180 -20 30
-4 91 -10 290 -31 25 -2 68 -7 95 -11 65 -8 115 -11 115 -8 0 2 -269 375 -326
452 -9 13 -45 62 -80 110 -35 49 -85 117 -111 153 -26 36 -57 79 -69 95 -19
27 -712 984 -808 1116 -133 182 -228 313 -550 759 -197 272 -362 499 -367 505
-5 5 -9 -611 -9 -1468z"/>
<path d="M2445 1234 c-55 -7 -129 -15 -165 -19 -36 -3 -76 -8 -90 -10 -14 -2
-54 -7 -90 -10 -36 -4 -81 -8 -100 -10 -19 -2 -64 -7 -100 -10 -36 -3 -81 -8
-100 -11 -19 -2 -55 -7 -80 -9 -110 -11 -167 -17 -190 -20 -14 -2 -57 -7 -96
-10 -39 -3 -80 -7 -92 -10 -11 -2 -53 -7 -93 -10 -40 -4 -80 -8 -88 -10 -9 -1
-50 -6 -91 -10 -41 -4 -82 -8 -90 -10 -8 -1 -50 -6 -92 -10 -43 -3 -91 -8
-107 -10 -16 -2 -60 -7 -97 -10 -38 -3 -80 -8 -94 -10 -14 -2 -72 -9 -130 -15
-58 -6 -121 -13 -140 -15 -19 -2 -66 -7 -105 -11 -38 -4 -77 -8 -85 -10 -8 -1
-21 -3 -28 -3 -13 -1 13 -54 171 -351 110 -206 159 -297 184 -347 l27 -53
2011 0 2011 0 256 372 c141 205 255 374 253 376 -1 2 -18 5 -36 7 -19 2 -59 6
-89 9 -30 4 -66 8 -80 10 -14 3 -61 7 -105 11 -44 3 -87 8 -95 10 -8 2 -46 6
-83 10 -37 3 -76 8 -85 10 -9 1 -51 6 -92 10 -41 4 -82 9 -90 10 -8 2 -51 6
-95 9 -44 4 -87 9 -95 11 -8 2 -46 7 -84 10 -38 4 -84 8 -103 11 -18 2 -57 6
-86 9 -28 3 -63 7 -77 10 -14 2 -56 7 -95 10 -38 3 -81 8 -95 10 -14 2 -56 6
-95 10 -38 3 -81 8 -95 10 -14 2 -52 6 -85 10 -68 7 -133 14 -185 20 -58 8
-211 24 -275 30 -33 3 -78 8 -100 12 -70 10 -147 9 -250 -3z"/>
</g>
</svg>
